<?xml version="1.0" encoding="utf-8"?>
<!-- Generator: Adobe Illustrator 15.0.2, SVG Export Plug-In . SVG Version: 6.00 Build 0)  -->
<!DOCTYPE svg PUBLIC "-//W3C//DTD SVG 1.1//EN" "http://www.w3.org/Graphics/SVG/1.1/DTD/svg11.dtd">
<svg version="1.1" id="Layer_1" xmlns="http://www.w3.org/2000/svg" xmlns:xlink="http://www.w3.org/1999/xlink" x="0px" y="0px"
	 width="493px" height="285px" viewBox="0 0 493 285" enable-background="new 0 0 493 285" xml:space="preserve">
<g>
	<path fill="#CCCCCC" d="M189.702,157.07c-3.556-0.496-6.954,1.217-8.718,4.09l-0.423,7.16h16.308
		c0.139-0.443,0.254-0.898,0.321-1.375C197.858,162.154,194.494,157.738,189.702,157.07z"/>
	<path fill="#CCCCCC" d="M365.254,137.117c1.077-0.742,1.764-1.806,1.802-3.35c0.03-1.245-0.01-2.331-0.099-3.303h-1.347
		L365.254,137.117z"/>
	<path fill="#CCCCCC" d="M134.213,184.669c-1.544-1.665-2.53-3.918-2.728-6.403l-0.71-8.945h-15.94
		c0.012,0.062,0.016,0.124,0.029,0.187c0.169,0.815,0.463,1.567,0.828,2.271l-5.606,1.156c-0.287-0.738-0.525-1.498-0.689-2.302
		c-0.09-0.438-0.153-0.876-0.202-1.312h-6.65c0.22,4.355,0.167,7.805-0.042,9.199c-0.064,0.437-0.195,0.821-0.369,1.17
		c2.797,1.729,4.66,4.718,4.911,8.061h27.311L134.213,184.669z"/>
	<path fill="#CCCCCC" d="M287.267,151.367c4.218,3.018,6.742,8.803,6.015,14.953c-0.082,0.691-0.216,1.351-0.372,2h22.485
		l-1.44-17.617c-0.681-0.252-1.377-0.521-2.076-0.811h-24.217C287.579,150.432,287.449,150.926,287.267,151.367z"/>
	<path fill="#CCCCCC" d="M223.428,91.607h-58.429c0.275,0.184,0.431,0.378,0.431,0.588c0,0.192-0.136,0.518-0.364,0.518h9.881
		c1.428,0,2.794,0.366,4.023,0.938c0.527-0.114,1.108-0.141,1.75-0.143c5.094,1.064,8.685,7.877,11.151,16.528h23.044
		C216.634,101.974,220.084,94.755,223.428,91.607z"/>
	<path fill="#CCCCCC" d="M126.655,117.486c-0.579,3.042-0.763,7.37-0.711,11.978h1.662L126.655,117.486z"/>
	<path fill="#CCCCCC" d="M92.609,168.32h0.799c0.063-3.905-0.026-8.283-0.395-11.869L92.609,168.32z"/>
	<path fill="#CCCCCC" d="M93.387,169.32h-0.812l-0.333,9.789c0.229-0.106,0.466-0.203,0.704-0.293
		c-0.114-0.424-0.148-0.883-0.075-1.383C93.099,175.918,93.304,172.869,93.387,169.32z"/>
	<path fill="#CCCCCC" d="M130.209,162.199c-1.995-2.438-5.238-3.713-8.541-3.031c-4.342,0.895-7.25,4.852-6.957,9.152h15.984
		L130.209,162.199z"/>
	<path fill="#CCCCCC" d="M284.586,110.036h21.742c1.798-2.492,3.674-4.207,5.305-4.703v-0.059c1-0.036,1.332-0.129,1.836-0.055
		c1.609-1.408,3.941-2.507,6.229-2.507h7.506c-0.218,0-0.345-0.107-0.345-0.286c0-0.453,0.749-0.619,1.998-0.963
		c-1.25-0.345-1.998-0.773-1.998-1.226c0-0.522,1.016-0.975,2.635-1.345c-1.178-0.268-2.025-0.597-2.406-0.956l-0.056-0.004
		c-3.002-0.228-5.03-3.001-5.266-6.325h-43.702C280.959,95.511,283.075,102.356,284.586,110.036z"/>
	<path fill="#CCCCCC" d="M183.299,152.421c-0.164-0.581-0.217-1.215-0.121-1.901c0.026-0.186,0.05-0.41,0.075-0.627h-1.567
		l-0.18,3.389C182.083,152.956,182.679,152.665,183.299,152.421z"/>
	<path fill="#CCCCCC" d="M274.458,151.15c0.511-0.34,1.04-0.646,1.589-0.902c-0.027-0.113-0.032-0.238-0.052-0.355h-1.481
		L274.458,151.15z"/>
	<path fill="#CCCCCC" d="M196.635,148.893h31.567l-0.53-7.904c-4.523-2.008-9.656-4.947-12.109-10.525h-19.937
		C196.454,137.976,196.724,144.814,196.635,148.893z"/>
	<path fill="#CCCCCC" d="M183.355,148.893c0.359-3.985,0.574-11.305,0.324-18.429h-0.964l-0.977,18.429H183.355z"/>
	<path fill="#CCCCCC" d="M287.777,167.952c0.283-0.763,0.501-1.574,0.604-2.44c0.592-5.035-2.366-9.677-6.613-10.379
		c-3.152-0.521-6.116,1.278-7.68,4.299l-0.396,8.889h16.316L287.777,167.952z"/>
	<path fill="#CCCCCC" d="M202.63,168.32h26.875l-1.235-18.428h-31.666c-0.035,0.821-0.086,1.492-0.154,1.979
		c-0.084,0.602-0.258,1.136-0.492,1.615c4.758,2.871,7.601,8.377,6.786,14.229C202.715,167.922,202.668,168.119,202.63,168.32z"/>
	<path fill="#CCCCCC" d="M226.804,127.983l-1.125-16.784c-1.414,2.206-2.645,5.974-2.515,12.308
		C223.218,126.173,224.717,127.43,226.804,127.983z"/>
	<path fill="#CCCCCC" d="M182.768,129.464h0.87c-0.103-2.471-0.26-4.898-0.492-7.124L182.768,129.464z"/>
	<path fill="#CCCCCC" d="M275.91,118.636l-0.483,10.828h1.012C276.368,125.738,276.204,121.975,275.91,118.636z"/>
	<path fill="#CCCCCC" d="M275.92,148.893c0.002-0.213-0.007-0.42,0.02-0.644c0.355-3.024,0.624-10.242,0.516-17.785h-1.073
		l-0.823,18.429H275.92z"/>
	<path fill="#CCCCCC" d="M114.279,129.464c0.41-6.256,1.192-12.765,2.525-18.428H90.633v10.67c0,4.02-3.107,7.007-7.129,7.007
		h-2.038c-0.402,0.761-0.917,0.723-1.528,0.751H114.279z"/>
	<polygon fill="#CCCCCC" points="247.275,188.75 248.672,227.25 254.634,227.25 254.634,188.75 	"/>
	<path fill="#CCCCCC" d="M158.453,210.184c0-1.679,0.18-3.258,1.18-4.635h0.001V188.75h-8.832l0.778,16.92
		c1.042,1.545,1.649,3.318,1.649,5.322c0,1.686-0.435,3.271-1.192,4.652l0.529,11.605h7.066v-12.432
		C158.633,213.441,158.453,211.863,158.453,210.184z"/>
	<path fill="#CCCCCC" d="M251.592,245.498c0.789-1.737,2.041-3.27,3.041-4.484h0.001v-9.764h-5.817l0.369,10.165
		C250.226,242.523,250.963,244.052,251.592,245.498z"/>
	<path fill="#CCCCCC" d="M155.957,243.057c0.889-1.654,1.676-3.111,3.676-4.269v-7.538h-6.884l0.371,8.13
		C154.292,240.436,155.247,241.682,155.957,243.057z"/>
	<polygon fill="#CCCCCC" points="62.313,197.423 63.619,227.25 71.633,227.25 71.633,197.736 	"/>
	<path fill="#CCCCCC" d="M438.093,171.216l-0.659,3.786c1.433,3.559,1.211,7.784-0.996,11.221c-0.357,0.553-0.706,1.053-1.13,1.522
		l-0.675-0.556h-0.001v0.561h54.815c-1.16-6.236-2.611-12.379-4.316-18.43h-46.096C438.689,170.053,438.37,170.695,438.093,171.216z
		"/>
	<path fill="#CCCCCC" d="M384.651,169.32h-21.218l-0.767,13.824c-0.091,1.698-0.429,3.271-1.238,4.605h24.283l-0.353-8.18
		c-1.235-1.772-1.805-4.06-1.391-6.396L384.651,169.32z"/>
	<polygon fill="#CCCCCC" points="401.293,227.25 420.632,227.25 420.632,188.844 420.162,188.75 399.656,188.75 	"/>
	<path fill="#CCCCCC" d="M339.992,243.764c0.844-1.547,1.641-2.91,3.641-3.992v-8.521h-6.84l0.431,9.02
		C338.336,241.256,339.32,242.477,339.992,243.764z"/>
	<polygon fill="#CCCCCC" points="334.906,191.713 336.603,227.25 343.633,227.25 343.633,191.713 	"/>
	<path fill="#CCCCCC" d="M68.269,245.043c0.768-1.426,1.364-2.66,3.364-3.615V231.25h-7.838l0.42,9.596
		C65.942,241.874,67.383,243.327,68.269,245.043z"/>
	<path fill="#CCCCCC" d="M356.795,90.607h40.229l-1.069-9.306c-0.477-4.141,2.095-7.934,5.74-8.474l4.373-0.647h-46.802
		L356.795,90.607z"/>
	<path fill="#CCCCCC" d="M135.674,216.623c-1.138-1.588-1.814-3.527-1.814-5.631c0-1.785,0.491-3.452,1.334-4.889L134.4,188.75
		h-27.335c-0.009,0.438-0.04,0.878-0.106,1.322c-0.089,0.59-0.229,1.15-0.409,1.697l-4.109-0.617
		c0.236-0.526,0.426-1.084,0.516-1.682c0.036-0.242,0.055-0.482,0.064-0.721h-11.03l-0.067,2.398
		c-0.135,3.967-3.288,7.08-7.288,7.023v29.078h51.524L135.674,216.623z"/>
	<path fill="#CCCCCC" d="M376.437,138.659c-1.367,5.065-5.405,8.134-9.712,10.234h21.547l1.367-7.712
		c-0.683-3.593-1.224-7.261-1.496-10.716h-10.934C377.354,133.28,377.137,136.066,376.437,138.659z"/>
	<path fill="#CCCCCC" d="M166.313,87.714h-1.787c-0.473,0-1.104,0.364-1.875,0.542c1.71,0.395,2.779,0.82,2.779,1.378
		c0,0.348-0.415,0.678-1.136,0.973h60.411c0.352-0.22,0.701-0.397,1.043-0.51c0.566-0.041,1.082,0.02,1.553,0.103
		c1.507-1.582,3.525-2.486,5.666-2.486h7.024c-0.203,0-0.322-0.476-0.322-0.678c0-0.509,0.699-1.051,1.869-1.438
		c-1.17-0.387-1.869-0.92-1.869-1.429c0-0.586,0.948-1.2,2.464-1.615c-0.684-0.188-1.244,0.159-1.661-0.841h-2.42
		c-3.079,0-5.421-2.542-5.421-6.192v-3.342h-59.997v9.136C172.634,84.788,169.785,87.714,166.313,87.714z"/>
	<path fill="#CCCCCC" d="M170.865,52.75c1.092,1.175,1.77,2.75,1.77,4.439v13.99h59.997V52.75H170.865z"/>
	<path fill="#CCCCCC" d="M114.216,130.464H81.77c0.453,0.293,0.71,0.602,0.71,0.895c0,0.558-0.897,1.075-2.414,1.5
		c1.518,0.425,2.414,0.942,2.414,1.5c0,0.264-0.205,0.52-0.578,0.761l4.551,0.155c1.231,0.042,2.379,0.39,3.378,0.965
		c0.489-0.15,1.049-0.235,1.695-0.231c3.845,0.846,6.456,6.21,8.181,12.884h14.39C113.843,144.247,113.794,137.561,114.216,130.464z
		"/>
	<path fill="#CCCCCC" d="M42.245,186.846c-0.646-3.092-3.496-5.291-6.729-5.029c-3.193,0.258-5.632,2.828-5.825,5.934h12.523
		L42.245,186.846z"/>
	<path fill="#CCCCCC" d="M142.265,89.67c0-0.558,1.07-1.015,2.78-1.41c-0.771-0.179-1.404-0.547-1.875-0.547h-2.729
		c-3.475,0-5.806-2.926-5.806-6.399v-9.135H69.633v11.534c0,0-0.357,0-0.343,0c4.565,0,8.42,1,9.678,3h4.536
		c2.864,0,5.257,1.552,6.402,3.894h53.417C142.651,90.321,142.265,90.005,142.265,89.67z"/>
	<path fill="#CCCCCC" d="M299.859,138.63c-0.697-2.583-0.896-5.358-0.729-8.166h-11.874c0.644,8.23,0.742,15.282,0.519,18.429
		h21.865C305.305,146.788,301.227,143.706,299.859,138.63z"/>
	<path fill="#CCCCCC" d="M377.148,129.464h10.93c-0.465-7.278,0.352-13.455,3.74-15.682c2.029-0.772,3.537-0.36,4.612,0.711
		c1.065-0.851,2.328-1.414,3.682-1.596c-0.295-0.572-0.52-1.198-0.676-1.861h-28.639
		C373.949,115.715,376.59,122.623,377.148,129.464z"/>
	<path fill="#CCCCCC" d="M438.074,90.607h5.765c-2.154-2.636-4.383-5.216-6.656-7.762L438.074,90.607z"/>
	<path fill="#CCCCCC" d="M385.754,188.75h-25.067c-0.54,0.598-1.204,1.133-2.054,1.574v36.926h28.78L385.754,188.75z"/>
	<path fill="#CCCCCC" d="M140.441,50.713h5.229c1.087-1,4.418-2.403,8.361-2.403c3.942,0,7.273,1.403,8.36,2.403h3.921
		c1.239,0,2.395,0.388,3.374,1.037h62.944v-1.583c0-3.65,2.342-6.454,5.421-6.454h4.637c0.831-1,2.942-2.379,5.942-2.62V29.259
		c-1-0.365-1.116-1.141-1.116-2.046c0-1.255,0.837-2.273,1.896-2.273c1.059,0,1.809,1.018,1.809,2.273
		c0,1.027-0.588,1.886-1.588,2.167v11.333c0,0,0.458,0,0.469,0c3.496,0,6.448,1,7.412,3h3.476c3.079,0,5.645,2.804,5.645,6.454
		v1.583h136.809C360.813,19.429,306.137,0,246.5,0C186.863,0,132.186,19.429,89.558,51.75h47.658
		C138.111,51.101,139.201,50.713,140.441,50.713z"/>
	<path fill="#CCCCCC" d="M439.622,104.079c0.258,2.243-0.384,4.379-1.602,5.957h20.052c-4.15-6.353-8.632-12.501-13.422-18.429
		h-6.461L439.622,104.079z"/>
	<path fill="#CCCCCC" d="M71.229,68.502c0,1.133-0.596,2.078-1.596,2.387v0.29h65.002v-13.99c0-1.689,0.555-3.264,1.521-4.439
		H88.249c-6.023,4.631-11.787,9.532-17.299,14.662C71.122,67.743,71.229,68.109,71.229,68.502z"/>
	<path fill="#CCCCCC" d="M266.633,71.179h54.7l-0.092-4.516c-0.072-3.524,2.896-6.142,6.036-5.923l27.069,1.885
		c3.139,0.218,5.759,3.285,5.291,6.779l-0.238,1.775h53.422l11.421-1.691C418.074,63.599,411.579,58,404.75,52.75H266.633V71.179z"
		/>
	<polygon fill="#CCCCCC" points="399.613,187.75 415.15,187.75 399.48,184.624 	"/>
	<path fill="#CCCCCC" d="M439.5,168.32h45.348c-1.795-6.252-3.867-12.4-6.218-18.428h-32.357
		C444.186,157.064,441.475,163.985,439.5,168.32z"/>
	<path fill="#CCCCCC" d="M433.882,112.553l-0.682,0.101c1.772,0.486,2.869,1.064,2.869,1.725c0,0.63-0.972,1.208-2.59,1.688
		c1.618,0.48,2.59,1.058,2.59,1.688c0,0.552-0.742,1.07-2.014,1.516l5.179,1.034c1.826,0.365,3.382,1.384,4.489,2.785
		c0.84-0.113,1.797,0.06,2.875,0.621c1.461,1.219,2.267,3.234,2.6,5.753h20.2c-3.255-6.307-6.812-12.458-10.666-18.428h-21.647
		C436.183,111.828,435.094,112.374,433.882,112.553z"/>
	<path fill="#CCCCCC" d="M446.562,148.893h31.668c-2.484-6.275-5.248-12.427-8.306-18.429h-20.619
		C449.704,135.494,448.433,142.247,446.562,148.893z"/>
	<path fill="#CCCCCC" d="M67.633,70.755c-0.051-0.021-0.084-0.055-0.133-0.078c-0.175,0.169-0.356,0.333-0.531,0.502h0.664V70.755z"
		/>
	<path fill="#CCCCCC" d="M434.632,233.419c2,2.106,3.927,5.181,3.927,8.616c0,1.697-0.477,3.324-1.159,4.775
		c-6.717,0.824-13.521,1.494-21.604,0c-0.684-1.453-1.058-3.076-1.058-4.775c0-4.232,1.894-7.92,5.894-9.918v-0.867H401.95
		c4.516,1.63,7.73,5.83,7.73,10.775c0,1.697-0.387,3.324-1.069,4.774c-6.717,0.824-13.526,1.494-21.609,0
		c-0.683-1.452-1.069-3.075-1.069-4.774c0-2.268,0.686-4.375,1.852-6.156l-0.199-4.619h-28.952v7.656
		c4,2.125,6.326,5.865,6.326,10.138c0,1.771-0.314,3.464-1.078,4.978c-7.525,0.858-15.153,1.557-24.208,0
		c-0.023-0.045-0.04-0.095-0.062-0.141c-7.423,0.844-14.967,1.501-23.896-0.033c-0.764-1.515-1.201-3.209-1.201-4.98
		c0-4.567,2.821-8.536,6.985-10.561l-0.328-7.057h-51.542v8.793c3,2.387,5.803,6.587,5.803,11.387c0,1.987-0.411,3.893-1.126,5.592
		c-7.041,0.965-14.177,1.748-22.649,0c-0.022-0.051-0.036-0.105-0.058-0.156c-6.945,0.945-14.003,1.686-22.357-0.039
		c-0.716-1.701-1.121-3.602-1.121-5.592c0-5.131,2.645-9.588,6.541-11.862l-0.313-8.122h-58.715v6.615
		c4,2.271,6.763,6.269,6.763,10.836c0,1.892-0.25,3.703-1.057,5.32c-7.943,0.918-15.995,1.664-25.553,0
		c-0.023-0.047-0.041-0.101-0.064-0.148c-7.837,0.9-15.796,1.604-25.223-0.037c-0.808-1.619-1.265-3.426-1.265-5.32
		c0-4.883,2.982-9.123,7.379-11.289l-0.272-5.977H84.634v9.846c3,1.834,4.805,4.928,4.805,8.438c0,1.504-0.452,2.945-1.094,4.23
		c-6.318,0.731-12.725,1.325-20.329,0c-0.019-0.037-0.031-0.08-0.051-0.117c-6.234,0.717-12.566,1.277-20.065-0.029
		c-0.644-1.287-1.008-2.725-1.008-4.232c0-3.242,1.657-6.123,4.237-7.99l-0.464-10.145H2.874C21.031,261.097,123.19,285,246.5,285
		c123.31,0,225.467-23.903,243.626-53.75h-55.494V233.419z"/>
	<path fill="#CCCCCC" d="M31.17,178.957c-0.149-0.357-0.253-0.752-0.289-1.191c-0.107-1.325,0.047-4.46,0.499-8.445H7.868
		c-1.705,6.051-3.157,12.193-4.317,18.43H25.63C25.771,183.976,27.948,180.655,31.17,178.957z"/>
	<path fill="#CCCCCC" d="M49.098,196.973c-3.976-0.182-7.077-3.527-6.941-7.516l0.024-0.707H29.706
		c0.055,0.571,0.19,1.113,0.382,1.627l-4.146,0.334c-0.142-0.559-0.245-1.127-0.293-1.721c-0.006-0.08-0.006-0.16-0.01-0.24H3.371
		c-1.963,10.843-3.092,21.943-3.31,33.25H0c0.026,1.765,0.365,3.516,0.971,5.25h49.511L49.098,196.973z"/>
	<path fill="#CCCCCC" d="M492.938,222c-0.218-11.307-1.347-22.407-3.31-33.25h-54.996v38.5h57.397
		c0.605-1.734,0.944-3.485,0.971-5.25H492.938z"/>
	<path fill="#CCCCCC" d="M46.633,93.784c-4.142,5.256-8.059,10.67-11.706,16.252h11.706V93.784z"/>
	<path fill="#CCCCCC" d="M53.558,86.713h6.055c1.085-2,4.021-2.658,8.021-2.923V72.179h-1.697
		c-4.757,4.694-9.284,9.584-13.594,14.638C52.735,86.753,53.138,86.713,53.558,86.713z"/>
	<path fill="#CCCCCC" d="M56.671,128.713h-3.113c-4.02,0-6.925-2.987-6.925-7.007v-10.67H34.266
		c-3.854,5.97-7.411,12.121-10.666,18.428H58.2C57.59,129.436,57.074,129.474,56.671,128.713z"/>
	<path fill="#CCCCCC" d="M35.219,149.893H14.369c-2.351,6.027-4.423,12.176-6.218,18.428h23.348
		C32.17,162.801,33.38,155.902,35.219,149.893z"/>
	<path fill="#CCCCCC" d="M44.737,136.104c0.415,0.026,0.787,0.086,1.131,0.173c1.381-1.417,3.324-2.28,5.457-2.207l4.369,0.14
		c0.128-0.508,0.982-0.994,2.379-1.385c-1.519-0.426-2.414-0.976-2.414-1.534c0-0.279,0.236-0.56,0.65-0.827H23.075
		c-3.058,6.002-5.821,12.154-8.305,18.429h20.763C37.724,142.12,40.745,136.7,44.737,136.104z"/>
	<path fill="#CCCCCC" d="M309.443,133.767c0.056,2.276,1.512,3.515,3.571,4.201l-0.604-7.504h-2.873
		C309.449,131.436,309.412,132.526,309.443,133.767z"/>
	<path fill="#CCCCCC" d="M127.805,154.107c0.624,0.201,1.229,0.447,1.816,0.729l-0.393-4.943h-1.814
		c0.133,0.922,0.264,1.709,0.388,2.31C127.944,152.88,127.931,153.516,127.805,154.107z"/>
	<path fill="#CCCCCC" d="M316.607,183.139l-1.13-13.818h-41.83l-0.359,8.086c-0.15,3.359-1.658,6.314-3.658,8.064v2.279h48.516
		C317.292,186.414,316.742,184.835,316.607,183.139z"/>
	<polygon fill="#CCCCCC" points="254.634,186.713 247.2,186.713 247.239,187.75 254.634,187.75 	"/>
	<path fill="#CCCCCC" d="M129.149,148.893l-1.464-18.429h-1.726c0.124,6.729,0.72,13.888,1.318,18.429H129.149z"/>
	<path fill="#CCCCCC" d="M232.531,184.139c-1.369-1.75-2.243-4.115-2.418-6.729l-0.542-8.09h-27.166
		c-0.066,0.247-0.128,0.495-0.205,0.738l-5.298-0.738h-16.4l-0.528,8.943c-0.169,3.196-1.341,6.01-4.341,7.676v1.811h57.038
		L232.531,184.139z"/>
	<rect x="150.756" y="187.715" fill="#CCCCCC" width="8.879" height="0.035"/>
	<path fill="#CCCCCC" d="M365.664,129.464h1.178c-0.211-1.484-0.556-2.65-0.986-3.571L365.664,129.464z"/>
	<path fill="#CCCCCC" d="M309.65,129.464h2.68l-0.44-5.478C310.902,125.076,310.037,126.701,309.65,129.464z"/>
	<path fill="#CCCCCC" d="M215.166,129.464c-0.232-0.642-0.441-1.305-0.601-2.013c-1.154-5.132-0.917-10.934,0.144-16.415h-22.562
		c1.567,5.782,2.653,12.294,3.365,18.428H215.166z"/>
	<path fill="#CCCCCC" d="M287.174,129.464h12.025c0.617-6.831,3.343-13.736,6.438-18.428H284.78
		C285.913,117.061,286.684,123.532,287.174,129.464z"/>
	<path fill="#CCCCCC" d="M109.115,168.32c-0.207-4.953,2.18-9.583,6.131-12.332c-0.265-0.465-0.472-0.989-0.595-1.584
		c-0.188-0.911-0.362-2.473-0.496-4.512H99.953c1.441,5.978,2.212,12.842,2.539,18.428H109.115z"/>
	<polygon fill="#CCCCCC" points="364.51,149.893 363.489,168.32 384.828,168.32 388.095,149.893 	"/>
	<path fill="#CCCCCC" d="M97.623,182.24c-2.12-0.318-4.126,0.451-5.505,1.888l-0.101,3.622h10.957
		C102.638,184.985,100.514,182.674,97.623,182.24z"/>
	<path fill="#CCCCCC" d="M42.873,168.32l0.604-17.729c-1.615,3.078-2.494,11.093-2.835,17.729H42.873z"/>
	<path fill="#CCCCCC" d="M232.709,188.75h-57.076v15.826c2,1.584,1.798,3.517,1.798,5.607c0,2.092,0.202,4.024-1.798,5.607v11.459
		h58.561L232.709,188.75z"/>
	<path fill="#CCCCCC" d="M40.559,177.343c0.04,0.503-0.023,0.959-0.168,1.374c0.747,0.346,1.444,0.778,2.085,1.284l0.363-10.681
		h-2.246C40.438,172.822,40.437,175.83,40.559,177.343z"/>
	<path fill="#CCCCCC" d="M356.661,91.607l-0.29,2.16c-0.47,3.494-2.899,6.154-6.037,5.916l-2.192-0.181
		c0.427,0.219,0.667,0.425,0.667,0.677c0,0.453-0.748,0.823-1.998,1.168c1.25,0.345,1.998,0.627,1.998,1.08
		c0,0.179-0.128,0.286-0.346,0.286h9.361c2.252,0,4.349,1.07,5.934,2.437c0.244-0.006,0.493,0.226,0.757,0.242
		c1.795,0.492,3.748,2.185,5.574,4.644h29.167l-2.118-18.429H356.661z"/>
	<path fill="#CCCCCC" d="M266.633,75.522c0,3.65-2.566,6.192-5.645,6.192h-1.584c-0.417,1-0.978,0.662-1.661,0.849
		c1.516,0.416,2.465,1.142,2.465,1.728c0,0.509-0.7,1.007-1.87,1.394c1.17,0.387,1.87,0.868,1.87,1.377
		c0,0.201-0.12,0.651-0.323,0.651h8.759c1.266,0,2.476,0.278,3.566,0.88c0.467-0.12,0.983-0.255,1.551-0.257
		c1.263,0.313,2.419,1.104,3.479,2.271h44.49l-0.377-18.428h-54.721V75.522z"/>
	<path fill="#CCCCCC" d="M117.047,110.036c1.937-7.691,4.949-13.635,9.515-14.903c0.638-0.039,1.22-0.032,1.752,0.047
		c1.699-1.505,3.976-2.467,6.392-2.467h7.923c-0.229,0-0.363-0.319-0.363-0.511c0-0.216,0.165-0.412,0.457-0.595H90.309
		c0.21,0.681,0.324,1.41,0.324,2.176v16.253H117.047z"/>
	<path fill="#CCCCCC" d="M319.213,189.134c-0.115-0.123-0.222-0.255-0.33-0.384h-49.254v38.5h51.356L319.213,189.134z"/>
</g>
</svg>
